{"glyphs":{"0":{"ha":603,"x_min":0,"x_max":0,"o":"m 301 -14 b 538 221 443 -14 538 81 l 538 751 b 301 986 538 892 443 986 b 65 751 160 986 65 892 l 65 221 b 301 -14 65 81 160 -14 z m 301 125 b 213 221 247 125 213 160 l 213 751 b 301 847 213 813 247 847 b 390 751 356 847 390 813 l 390 221 b 301 125 390 160 356 125 z "},"1":{"ha":421,"x_min":0,"x_max":0,"o":"m 196 0 l 343 0 l 343 972 l 240 972 b 29 865 211 919 143 874 l 29 763 l 196 763 z "},"2":{"ha":554,"x_min":0,"x_max":0,"o":"m 378 396 b 508 744 476 553 508 639 b 274 985 508 894 419 985 b 42 729 128 985 42 888 l 42 683 l 183 683 l 183 740 b 272 846 183 808 215 846 b 361 740 329 846 361 808 b 257 471 361 665 338 599 l 42 128 l 42 0 l 508 0 l 508 139 l 217 139 z "},"3":{"ha":561,"x_min":0,"x_max":0,"o":"m 394 507 b 499 693 463 542 499 606 l 499 757 b 271 986 499 897 414 986 b 43 757 128 986 43 897 l 43 724 l 185 724 l 185 746 b 268 847 185 817 215 847 b 351 760 321 847 351 817 l 351 685 b 240 574 351 607 318 574 l 192 574 l 192 435 l 250 435 b 361 324 328 435 361 401 l 361 222 b 271 125 361 158 328 125 b 181 236 214 125 181 158 l 181 268 l 39 254 l 39 225 b 274 -14 39 78 126 -14 b 508 225 421 -14 508 78 l 508 315 b 394 507 508 407 469 472 z "},"4":{"ha":578,"x_min":0,"x_max":0,"o":"m 547 342 l 468 342 l 468 972 l 293 972 l 33 335 l 33 203 l 321 203 l 321 0 l 468 0 l 468 203 l 547 203 z m 172 342 l 321 724 l 321 342 z "},"5":{"ha":576,"x_min":0,"x_max":0,"o":"m 293 -14 b 525 222 438 -14 525 75 l 525 467 b 349 663 525 585 458 663 b 208 592 282 663 229 629 l 208 833 l 488 833 l 488 972 l 67 972 l 67 417 l 208 417 l 208 433 b 300 529 208 493 247 529 b 378 444 347 529 378 501 l 378 219 b 290 125 378 156 344 125 b 203 233 236 125 203 156 l 203 265 l 61 251 l 61 222 b 293 -14 61 75 149 -14 z "},"6":{"ha":588,"x_min":0,"x_max":0,"o":"m 301 -14 b 535 219 440 -14 535 81 l 535 408 b 356 607 535 529 468 607 b 213 538 283 607 235 574 l 213 760 b 299 847 213 813 246 847 b 386 760 351 847 386 813 l 386 721 l 528 721 l 528 753 b 297 986 528 892 436 986 b 65 753 158 986 65 892 l 65 219 b 301 -14 65 81 160 -14 z m 301 125 b 213 213 246 125 213 160 l 213 376 b 307 474 213 438 249 474 b 388 386 357 474 388 446 l 388 213 b 301 125 388 160 354 125 z "},"7":{"ha":510,"x_min":0,"x_max":0,"o":"m 29 972 l 29 831 l 333 831 l 90 0 l 243 0 l 476 844 l 476 972 z "},"8":{"ha":594,"x_min":0,"x_max":0,"o":"m 433 506 b 532 693 496 540 532 604 l 532 757 b 297 986 532 897 447 986 b 63 757 147 986 63 897 l 63 693 b 161 506 63 604 99 540 b 53 315 92 472 53 407 l 53 225 b 297 -14 53 78 140 -14 b 542 225 454 -14 542 78 l 542 315 b 433 506 542 407 503 472 z m 210 760 b 297 847 210 817 240 847 b 385 760 354 847 385 817 l 385 685 b 297 574 385 607 351 574 b 210 685 243 574 210 607 z m 394 222 b 297 125 394 158 361 125 b 200 222 233 125 200 158 l 200 324 b 297 435 200 401 233 435 b 394 324 361 435 394 401 z "},"9":{"ha":588,"x_min":0,"x_max":0,"o":"m 272 986 b 39 753 133 986 39 892 l 39 564 b 218 365 39 443 106 365 b 361 435 290 365 339 399 l 361 213 b 275 125 361 160 328 125 b 188 213 222 125 188 160 l 188 251 l 46 251 l 46 219 b 276 -14 46 81 138 -14 b 508 219 415 -14 508 81 l 508 753 b 272 986 508 892 414 986 z m 272 847 b 361 760 328 847 361 813 l 361 596 b 267 499 361 535 325 499 b 186 586 217 499 186 526 l 186 760 b 272 847 186 813 219 847 z "}," ":{"ha":278,"x_min":0,"x_max":0,"o":""},"A":{"ha":586,"x_min":0,"x_max":0,"o":"m 403 0 l 553 0 l 392 972 l 194 972 l 33 0 l 181 0 l 213 215 l 371 215 z m 232 357 l 292 764 l 351 357 z "},"B":{"ha":610,"x_min":0,"x_max":0,"o":"m 446 503 b 544 689 510 539 544 601 l 544 740 b 314 972 544 881 454 972 l 81 972 l 81 0 l 326 0 b 557 232 467 0 557 92 l 557 311 b 446 503 557 404 517 469 z m 307 833 b 397 743 364 833 397 800 l 397 674 b 293 569 397 603 364 569 l 228 569 l 228 833 z m 410 229 b 319 139 410 172 376 139 l 228 139 l 228 431 l 306 431 b 410 326 376 431 410 397 z "},"C":{"ha":583,"x_min":0,"x_max":0,"o":"m 299 -14 b 529 217 436 -14 529 81 l 529 356 l 385 356 l 385 217 b 300 125 385 160 350 125 b 215 217 250 125 215 160 l 215 756 b 300 847 215 813 250 847 b 385 756 350 847 385 813 l 385 642 l 529 642 l 529 756 b 299 986 529 892 436 986 b 68 756 161 986 68 892 l 68 217 b 299 -14 68 81 161 -14 z "},"D":{"ha":608,"x_min":0,"x_max":0,"o":"m 81 0 l 311 0 b 542 232 451 0 542 92 l 542 740 b 311 972 542 881 451 972 l 81 972 z m 228 139 l 228 833 l 304 833 b 394 743 361 833 394 800 l 394 229 b 304 139 394 172 361 139 z "},"E":{"ha":542,"x_min":0,"x_max":0,"o":"m 81 0 l 499 0 l 499 139 l 228 139 l 228 424 l 443 424 l 443 563 l 228 563 l 228 833 l 499 833 l 499 972 l 81 972 z "},"F":{"ha":525,"x_min":0,"x_max":0,"o":"m 81 0 l 228 0 l 228 410 l 436 410 l 436 549 l 228 549 l 228 833 l 492 833 l 492 972 l 81 972 z "},"G":{"ha":603,"x_min":0,"x_max":0,"o":"m 540 669 l 540 751 b 304 986 540 892 446 986 b 68 751 163 986 68 892 l 68 221 b 304 -14 68 81 163 -14 b 540 221 446 -14 540 81 l 540 532 l 304 532 l 304 393 l 393 393 l 393 221 b 304 125 393 160 358 125 b 215 221 250 125 215 160 l 215 751 b 304 847 215 813 250 847 b 393 751 358 847 393 813 l 393 669 z "},"H":{"ha":631,"x_min":0,"x_max":0,"o":"m 228 0 l 228 424 l 403 424 l 403 0 l 550 0 l 550 972 l 403 972 l 403 563 l 228 563 l 228 972 l 81 972 l 81 0 z "},"I":{"ha":308,"x_min":0,"x_max":0,"o":"m 81 0 l 228 0 l 228 972 l 81 972 z "},"J":{"ha":429,"x_min":0,"x_max":0,"o":"m 125 -14 b 354 217 264 -14 354 78 l 354 972 l 207 972 l 207 243 b 107 125 207 158 176 125 b 50 132 88 125 65 128 l 31 0 b 125 -14 57 -8 88 -14 z "},"K":{"ha":625,"x_min":0,"x_max":0,"o":"m 438 0 l 596 0 l 374 560 l 581 972 l 422 972 l 228 578 l 228 972 l 81 972 l 81 0 l 228 0 l 228 293 l 283 400 z "},"L":{"ha":524,"x_min":0,"x_max":0,"o":"m 81 0 l 490 0 l 490 139 l 228 139 l 228 972 l 81 972 z "},"M":{"ha":831,"x_min":0,"x_max":0,"o":"m 539 972 l 417 351 l 289 972 l 81 972 l 81 0 l 225 0 l 225 667 l 363 0 l 465 0 l 603 667 l 603 0 l 750 0 l 750 972 z "},"N":{"ha":656,"x_min":0,"x_max":0,"o":"m 81 0 l 225 0 l 225 622 l 419 0 l 575 0 l 575 972 l 431 972 l 431 319 l 243 972 l 81 972 z "},"O":{"ha":608,"x_min":0,"x_max":0,"o":"m 304 -14 b 540 221 446 -14 540 81 l 540 751 b 304 986 540 892 446 986 b 68 751 163 986 68 892 l 68 221 b 304 -14 68 81 163 -14 z m 304 125 b 215 221 250 125 215 160 l 215 751 b 304 847 215 813 250 847 b 393 751 358 847 393 813 l 393 221 b 304 125 393 160 358 125 z "},"P":{"ha":585,"x_min":0,"x_max":0,"o":"m 81 0 l 228 0 l 228 394 l 311 394 b 542 626 451 394 542 486 l 542 740 b 311 972 542 881 451 972 l 81 972 z m 228 533 l 228 833 l 304 833 b 394 743 361 833 394 800 l 394 624 b 304 533 394 567 361 533 z "},"Q":{"ha":619,"x_min":0,"x_max":0,"o":"m 513 100 b 540 221 531 135 540 175 l 540 751 b 304 986 540 892 446 986 b 68 751 163 986 68 892 l 68 221 b 304 -14 68 81 163 -14 b 424 14 350 -14 390 -4 b 567 -56 451 -36 499 -56 l 567 86 b 513 100 542 86 525 90 z m 393 221 b 304 125 393 160 358 125 b 215 221 250 125 215 160 l 215 751 b 304 847 215 813 250 847 b 393 751 358 847 393 813 z "},"R":{"ha":604,"x_min":0,"x_max":0,"o":"m 564 0 l 440 435 b 542 633 504 474 542 543 l 542 740 b 311 972 542 881 451 972 l 81 972 l 81 0 l 228 0 l 228 401 l 304 401 l 411 0 z m 228 833 l 304 833 b 394 743 361 833 394 800 l 394 631 b 304 540 394 574 361 540 l 228 540 z "},"S":{"ha":567,"x_min":0,"x_max":0,"o":"m 285 -14 b 522 225 425 -14 522 86 b 335 544 522 332 476 403 b 200 754 231 649 200 693 b 281 847 200 815 229 847 b 361 733 332 847 361 808 l 361 706 l 503 721 l 503 746 b 279 986 503 892 419 986 b 56 747 139 986 56 892 b 243 428 56 640 97 565 b 378 218 353 324 378 279 b 283 125 378 161 342 125 b 189 239 225 125 189 168 l 189 275 l 47 260 l 47 225 b 285 -14 47 86 144 -14 z "},"T":{"ha":536,"x_min":0,"x_max":0,"o":"m 33 833 l 194 833 l 194 0 l 342 0 l 342 833 l 503 833 l 503 972 l 33 972 z "},"U":{"ha":606,"x_min":0,"x_max":0,"o":"m 304 -14 b 531 214 439 -14 531 78 l 531 972 l 386 972 l 386 214 b 304 125 386 157 351 125 b 222 214 257 125 222 157 l 222 972 l 75 972 l 75 214 b 304 -14 75 78 169 -14 z "},"V":{"ha":586,"x_min":0,"x_max":0,"o":"m 406 972 l 294 208 l 183 972 l 33 972 l 194 0 l 392 0 l 553 972 z "},"W":{"ha":836,"x_min":0,"x_max":0,"o":"m 656 972 l 575 315 l 494 972 l 344 972 l 264 315 l 183 972 l 35 972 l 178 0 l 340 0 l 418 640 l 496 0 l 658 0 l 801 972 z "},"X":{"ha":615,"x_min":0,"x_max":0,"o":"m 585 0 l 394 496 l 578 972 l 425 972 l 317 661 l 201 972 l 43 972 l 224 503 l 31 0 l 183 0 l 301 339 l 426 0 z "},"Y":{"ha":597,"x_min":0,"x_max":0,"o":"m 415 972 l 299 601 l 185 972 l 28 972 l 225 407 l 225 0 l 372 0 l 372 407 l 569 972 z "},"Z":{"ha":531,"x_min":0,"x_max":0,"o":"m 486 972 l 44 972 l 44 833 l 322 833 l 44 125 l 44 0 l 486 0 l 486 139 l 208 139 l 486 847 z "},".":{"ha":328,"x_min":0,"x_max":0,"o":"m 90 0 l 238 0 l 238 146 l 90 146 z "},",":{"ha":328,"x_min":0,"x_max":0,"o":"m 90 -146 l 160 -146 l 238 14 l 238 146 l 90 146 l 90 0 l 143 0 z "},":":{"ha":328,"x_min":0,"x_max":0,"o":"m 90 524 l 238 524 l 238 669 l 90 669 z m 90 0 l 238 0 l 238 146 l 90 146 z "},";":{"ha":328,"x_min":0,"x_max":0,"o":"m 90 524 l 238 524 l 238 669 l 90 669 z m 90 -146 l 160 -146 l 238 14 l 238 146 l 90 146 l 90 0 l 143 0 z "},"!":{"ha":314,"x_min":0,"x_max":0,"o":"m 83 972 l 83 665 l 108 250 l 206 250 l 231 665 l 231 972 z m 83 147 l 83 0 l 231 0 l 231 147 z "},"?":{"ha":558,"x_min":0,"x_max":0,"o":"m 183 250 l 308 250 l 308 272 b 401 481 308 367 354 424 b 511 746 456 546 511 617 b 276 986 511 896 422 986 b 44 731 131 986 44 889 l 44 683 l 186 683 l 186 742 b 275 847 186 810 218 847 b 364 742 332 847 364 810 b 282 539 364 646 325 593 b 183 272 235 479 183 413 z m 172 0 l 319 0 l 319 147 l 172 147 z "},"·":{"ha":328,"x_min":0,"x_max":0,"o":"m 90 414 l 238 414 l 238 560 l 90 560 z "},"•":{"ha":556,"x_min":0,"x_max":0,"o":"m 160 369 l 396 369 l 396 604 l 160 604 z "},"*":{"ha":633,"x_min":0,"x_max":0,"o":"m 210 454 l 317 624 l 424 454 l 524 528 l 396 679 l 589 729 l 550 847 l 363 771 l 379 972 l 254 972 l 271 771 l 83 847 l 44 729 l 238 679 l 110 528 z "},"#":{"ha":649,"x_min":0,"x_max":0,"o":"m 90 0 l 213 0 l 240 263 l 356 263 l 329 0 l 451 0 l 478 263 l 554 263 l 567 372 l 489 372 l 518 661 l 594 661 l 606 771 l 528 771 l 547 972 l 426 972 l 407 771 l 292 771 l 311 972 l 190 972 l 169 771 l 92 771 l 81 661 l 158 661 l 129 372 l 53 372 l 43 263 l 119 263 z m 250 372 l 279 661 l 396 661 l 368 372 z "},"/":{"ha":467,"x_min":0,"x_max":0,"o":"m 13 -46 l 132 -46 l 454 1018 l 335 1018 z "},"\\":{"ha":467,"x_min":0,"x_max":0,"o":"m 335 -46 l 454 -46 l 132 1018 l 13 1018 z "},"(":{"ha":358,"x_min":0,"x_max":0,"o":"m 238 -47 l 329 -7 b 188 488 231 182 188 333 b 329 982 188 642 231 793 l 238 1022 b 40 488 110 847 40 661 b 238 -47 40 314 110 128 z "},")":{"ha":358,"x_min":0,"x_max":0,"o":"m 121 -47 b 318 488 249 128 318 314 b 121 1022 318 661 249 847 l 29 982 b 171 488 128 793 171 642 b 29 -7 171 333 128 182 z "},"{":{"ha":379,"x_min":0,"x_max":0,"o":"m 344 -42 l 344 72 b 240 167 256 72 240 86 l 240 342 b 153 486 240 421 215 474 b 240 631 215 499 240 551 l 240 806 b 344 900 240 886 256 900 l 344 1014 b 107 822 182 1014 107 971 l 107 610 b 29 543 107 560 88 543 l 29 429 b 107 363 88 429 107 413 l 107 150 b 344 -42 107 1 182 -42 z "},"}":{"ha":379,"x_min":0,"x_max":0,"o":"m 35 -42 b 272 150 197 -42 272 1 l 272 363 b 350 429 272 413 292 429 l 350 543 b 272 610 292 543 272 560 l 272 822 b 35 1014 272 971 197 1014 l 35 900 b 139 806 124 900 139 886 l 139 631 b 226 486 139 551 164 499 b 139 342 164 474 139 421 l 139 167 b 35 72 139 86 124 72 z "},"[":{"ha":360,"x_min":0,"x_max":0,"o":"m 78 -31 l 325 -31 l 325 82 l 211 82 l 211 889 l 325 889 l 325 1003 l 78 1003 z "},"]":{"ha":358,"x_min":0,"x_max":0,"o":"m 35 -31 l 281 -31 l 281 1003 l 35 1003 l 35 889 l 149 889 l 149 82 l 35 82 z "},"-":{"ha":417,"x_min":0,"x_max":0,"o":"m 42 414 l 375 414 l 375 558 l 42 558 z "},"–":{"ha":556,"x_min":0,"x_max":0,"o":"m 42 421 l 514 421 l 514 551 l 42 551 z "},"—":{"ha":833,"x_min":0,"x_max":0,"o":"m 42 421 l 792 421 l 792 551 l 42 551 z "},"_":{"ha":556,"x_min":0,"x_max":0,"o":"m 0 -162 l 556 -162 l 556 -56 l 0 -56 z "},"‚":{"ha":328,"x_min":0,"x_max":0,"o":"m 90 -146 l 160 -146 l 238 14 l 238 146 l 90 146 l 90 0 l 143 0 z "},"„":{"ha":550,"x_min":0,"x_max":0,"o":"m 90 -146 l 160 -146 l 238 14 l 238 146 l 90 146 l 90 0 l 143 0 z m 313 -146 l 382 -146 l 460 14 l 460 146 l 313 146 l 313 0 l 365 0 z "},"“":{"ha":550,"x_min":0,"x_max":0,"o":"m 238 972 l 168 972 l 90 813 l 90 681 l 238 681 l 238 826 l 185 826 z m 460 972 l 390 972 l 313 813 l 313 681 l 460 681 l 460 826 l 407 826 z "},"”":{"ha":550,"x_min":0,"x_max":0,"o":"m 90 681 l 160 681 l 238 840 l 238 972 l 90 972 l 90 826 l 143 826 z m 313 681 l 382 681 l 460 840 l 460 972 l 313 972 l 313 826 l 365 826 z "},"‘":{"ha":328,"x_min":0,"x_max":0,"o":"m 238 972 l 168 972 l 90 813 l 90 681 l 238 681 l 238 826 l 185 826 z "},"’":{"ha":328,"x_min":0,"x_max":0,"o":"m 90 681 l 160 681 l 238 840 l 238 972 l 90 972 l 90 826 l 143 826 z "},"\"":{"ha":492,"x_min":0,"x_max":0,"o":"m 93 681 l 183 681 l 213 972 l 63 972 z m 308 681 l 399 681 l 428 972 l 278 972 z "},"'":{"ha":276,"x_min":0,"x_max":0,"o":"m 93 681 l 183 681 l 213 972 l 63 972 z "},"¢":{"ha":608,"x_min":0,"x_max":0,"o":"m 540 607 l 540 644 b 378 867 540 757 476 840 l 378 958 l 253 958 l 253 869 b 79 644 147 847 79 761 l 79 328 b 253 103 79 211 147 125 l 253 14 l 378 14 l 378 106 b 540 328 476 132 540 215 l 540 390 l 396 390 l 396 328 b 311 236 396 271 361 236 b 226 328 261 236 226 271 l 226 644 b 311 736 226 701 261 736 b 396 644 361 736 396 701 l 396 607 z "},"$":{"ha":606,"x_min":0,"x_max":0,"o":"m 540 253 b 363 538 540 376 450 463 b 224 726 289 601 224 658 b 304 819 224 788 253 819 b 385 706 356 819 385 781 l 385 678 l 526 693 l 526 718 b 364 951 526 842 467 928 l 364 1028 l 239 1028 l 239 951 b 79 719 138 926 79 840 b 257 435 79 596 168 508 b 396 246 332 372 396 314 b 301 153 396 189 360 153 b 207 267 243 153 207 196 l 207 303 l 65 288 l 65 253 b 239 21 65 136 133 47 l 239 -56 l 364 -56 l 364 21 b 540 253 471 46 540 135 z "},"£":{"ha":608,"x_min":0,"x_max":0,"o":"m 540 686 l 540 756 b 315 985 540 896 465 985 b 90 756 169 985 90 897 b 157 532 90 649 124 589 b 192 465 169 510 182 489 l 76 465 l 76 332 l 214 332 b 76 128 210 217 167 167 l 76 0 l 540 0 l 540 139 l 260 139 b 339 332 318 201 335 251 l 485 332 l 485 465 l 326 465 b 279 593 315 511 297 553 b 235 747 256 646 235 697 b 317 846 235 804 254 846 b 396 732 381 846 396 813 l 396 686 z "},"+":{"ha":603,"x_min":0,"x_max":0,"o":"m 551 529 l 356 529 l 356 725 l 247 725 l 247 529 l 51 529 l 51 421 l 247 421 l 247 225 l 356 225 l 356 421 l 551 421 z "},"−":{"ha":603,"x_min":0,"x_max":0,"o":"m 551 529 l 51 529 l 51 421 l 551 421 z "},"=":{"ha":603,"x_min":0,"x_max":0,"o":"m 58 649 l 58 540 l 544 540 l 544 649 z m 58 408 l 58 300 l 544 300 l 544 408 z "},">":{"ha":603,"x_min":0,"x_max":0,"o":"m 544 529 l 58 740 l 58 614 l 393 476 l 58 340 l 58 215 l 544 424 z "},"<":{"ha":589,"x_min":0,"x_max":0,"o":"m 58 529 l 58 424 l 544 215 l 544 340 l 210 476 l 544 614 l 544 740 z "},"~":{"ha":603,"x_min":0,"x_max":0,"o":"m 119 372 b 210 456 157 428 175 456 b 292 417 233 456 253 442 b 394 376 342 385 364 376 b 563 515 467 376 510 425 l 483 575 b 393 492 446 519 428 492 b 311 531 369 492 351 506 b 208 571 261 561 239 571 b 40 432 136 571 93 522 z "},"^":{"ha":603,"x_min":0,"x_max":0,"o":"m 250 972 l 39 486 l 165 486 l 303 821 l 439 486 l 564 486 l 356 972 z "},"%":{"ha":863,"x_min":0,"x_max":0,"o":"m 211 432 b 358 588 307 432 358 488 l 358 831 b 211 986 358 931 307 986 b 64 831 115 986 64 931 l 64 588 b 211 432 64 488 115 432 z m 181 0 l 278 0 l 682 972 l 585 972 z m 211 519 b 161 581 179 519 161 538 l 161 838 b 211 899 161 881 179 899 b 261 838 242 899 261 881 l 261 581 b 211 519 261 538 242 519 z m 651 -14 b 799 142 747 -14 799 42 l 799 385 b 651 540 799 485 747 540 b 504 385 556 540 504 485 l 504 142 b 651 -14 504 42 556 -14 z m 651 74 b 601 135 619 74 601 92 l 601 392 b 651 453 601 435 619 453 b 701 392 682 453 701 435 l 701 135 b 651 74 701 92 682 74 z "},"@":{"ha":1015,"x_min":0,"x_max":0,"o":"m 547 -83 b 789 -18 633 -83 711 -67 l 800 115 b 550 33 715 53 638 33 b 192 382 324 33 192 154 b 544 910 192 688 283 910 b 842 622 731 910 842 803 b 739 304 842 489 811 304 b 704 340 714 304 704 318 b 706 357 704 344 704 346 l 747 732 l 613 732 l 607 676 b 481 746 583 719 542 746 b 322 563 396 746 335 690 l 304 379 b 301 339 303 365 301 351 b 444 179 301 242 344 179 b 583 272 504 179 554 214 b 710 179 594 215 633 179 b 957 619 899 179 957 421 b 540 1028 957 883 806 1028 b 61 396 218 1028 61 768 b 547 -83 61 88 242 -83 z m 496 297 b 436 364 453 297 436 324 b 438 383 436 369 436 376 l 454 546 b 521 629 458 592 476 629 b 592 536 568 629 592 593 l 592 526 l 579 404 b 496 297 571 326 536 297 z "},"&":{"ha":719,"x_min":0,"x_max":0,"o":"m 676 0 l 544 204 b 632 486 579 278 607 371 l 485 486 b 453 347 474 432 464 386 l 360 492 b 511 776 479 622 511 672 b 304 986 511 904 428 986 b 89 767 174 986 89 893 b 167 538 89 675 131 597 l 188 504 b 58 231 106 418 58 346 b 275 -14 58 65 154 -14 b 458 68 344 -14 406 13 l 500 0 z m 306 854 b 376 767 351 854 376 824 b 288 604 376 706 347 664 b 231 767 246 671 231 724 b 306 854 231 819 258 854 z m 303 125 b 206 238 249 125 206 153 b 263 382 206 296 224 333 l 390 178 b 303 125 364 138 336 125 z "},"|":{"ha":556,"x_min":0,"x_max":0,"o":"m 211 -208 l 344 -208 l 344 1181 l 211 1181 z "},"¦":{"ha":556,"x_min":0,"x_max":0,"o":"m 211 625 l 344 625 l 344 1181 l 211 1181 z m 211 -208 l 344 -208 l 344 347 l 211 347 z "},"`":{"ha":264,"x_min":0,"x_max":0,"o":"m 144 749 l 236 749 l 157 972 l 21 972 z "}}}
